<?xml version="1.0" standalone="no"?>
<!DOCTYPE svg PUBLIC "-//W3C//DTD SVG 20010904//EN"
 "http://www.w3.org/TR/2001/REC-SVG-20010904/DTD/svg10.dtd">
<svg version="1.0" xmlns="http://www.w3.org/2000/svg"
 width="512.000000pt" height="512.000000pt" viewBox="0 0 512.000000 512.000000"
 preserveAspectRatio="xMidYMid meet">
<metadata>
Created by potrace 1.14, written by Peter Selinger 2001-2017
</metadata>
<g transform="translate(0.000000,512.000000) scale(0.100000,-0.100000)"
fill="#000000" stroke="none">
<path d="M1097 4394 c-1 -1 -49 -5 -107 -8 -58 -4 -127 -11 -155 -16 -27 -5
-66 -12 -85 -14 -47 -6 -175 -33 -229 -49 -62 -17 -85 -52 -88 -130 -1 -34 -2
-68 -2 -74 -1 -9 -45 -12 -175 -12 -116 0 -183 -5 -201 -13 -58 -26 -55 75
-55 -1667 0 -992 4 -1609 10 -1625 23 -61 93 -73 180 -30 216 105 561 208 840
250 19 3 62 9 95 14 229 35 740 35 955 0 30 -5 78 -12 105 -15 51 -6 192 -34
298 -59 58 -14 88 -14 142 -2 17 3 39 8 50 10 11 3 61 13 110 24 50 11 115 23
145 27 30 4 62 9 70 10 48 9 104 15 175 21 44 4 91 8 105 10 33 4 466 4 505
-1 17 -2 58 -6 92 -9 90 -9 130 -14 248 -32 265 -42 710 -182 833 -262 12 -8
41 -15 64 -15 34 0 47 6 70 32 l28 31 0 1611 c0 1751 3 1651 -55 1677 -17 8
-87 12 -203 12 l-178 0 -1 75 c-3 85 -12 109 -51 129 -52 27 -324 78 -492 92
-182 15 -471 8 -602 -16 -29 -5 -69 -12 -88 -15 -65 -11 -229 -55 -302 -81
-196 -71 -380 -182 -542 -328 l-50 -44 -52 50 c-248 238 -621 393 -1048 434
-64 6 -353 13 -359 8z m2953 -209 c69 -3 141 -8 160 -10 76 -10 236 -38 256
-45 l20 -8 0 -1298 -1 -1299 -55 1 c-30 1 -91 5 -135 10 -100 11 -576 12 -670
1 -38 -5 -86 -10 -105 -12 -257 -31 -535 -115 -747 -226 l-113 -58 0 1232 0
1232 38 41 c120 132 340 271 532 337 99 34 252 73 320 82 30 4 66 9 80 11 14
3 79 7 145 10 66 4 122 8 123 10 2 1 9 1 15 -1 7 -2 68 -6 137 -10z m-2544 -9
c385 -60 647 -178 873 -392 l78 -74 2 -1235 c1 -679 -1 -1235 -4 -1235 -3 0
-23 11 -45 25 -187 118 -458 205 -810 260 -130 20 -616 28 -770 12 -41 -4
-103 -10 -137 -14 l-63 -5 0 1305 0 1305 90 16 c111 21 138 25 220 32 36 4 67
8 69 10 7 6 453 -3 497 -10z m-1071 -1544 c1 -1189 2 -1258 18 -1284 20 -30
65 -49 99 -43 13 2 49 7 82 10 32 3 61 7 65 9 3 2 51 7 106 11 55 4 114 9 130
11 43 4 456 5 480 0 11 -2 47 -7 80 -10 102 -12 129 -16 231 -37 127 -25 128
-25 199 -48 l60 -20 -80 7 c-106 9 -572 8 -660 -2 -106 -11 -148 -16 -175 -21
-14 -2 -43 -7 -65 -10 -22 -3 -94 -17 -160 -31 -66 -13 -133 -27 -150 -30 -48
-9 -302 -90 -400 -127 -50 -19 -92 -33 -93 -32 -6 5 -4 2893 1 2902 3 4 56 7
119 5 l113 -3 0 -1257z m4420 1259 l70 -1 -2 -1452 c-2 -798 -4 -1452 -5
-1453 -2 -1 -43 13 -93 32 -135 50 -326 109 -455 138 -8 2 -35 8 -60 14 -25 5
-58 12 -75 15 -211 36 -201 35 -365 52 -124 13 -475 19 -560 9 -19 -2 -71 -6
-115 -9 l-80 -6 70 20 c119 34 108 32 245 58 58 11 139 23 180 27 41 4 84 9
95 11 26 6 425 5 489 -1 26 -2 84 -7 127 -10 43 -3 87 -8 96 -10 15 -2 137
-16 153 -17 38 -2 64 7 87 28 l28 26 2 1226 c1 675 2 1244 2 1264 1 39 12 45
71 41 14 -1 57 -2 95 -2z"/>
</g>
</svg>
